# xmcd
#
# Track frame offsets: 
#        150
#        14355
#        37932
#        62757
#        104210
#        121815
#        161137
#        195145
#        252940
#        280392
#
# Disc length: 4316 seconds
#
# Revision: 0
# Processed by: cddbd v1.5.2PL0 Copyright (c) Steve Scherf et al.
# Submitted via: ExactAudioCopy v0.95b4
#
DISCID=8610da0a
DTITLE=John Mayall and Friends - Beano Boy PLays Blues Again [CD1]
DYEAR=2003
DGENRE=Blues
TTITLE0=Introduction
TTITLE1=Grits Ain't Groceries
TTITLE2=Jacksboro Highway
TTITLE3=Southside Story 
TTITLE4=Kids Got The Blues
TTITLE5=Dirty Water
TTITLE6=Somebody's Acting Like A Child
TTITLE7=Blues For The Lost Days
TTITLE8=Walking On Sunset
TTITLE9=Oh Pretty Woman
EXTD=
EXTT0=
EXTT1=
EXTT2=
EXTT3=
EXTT4=
EXTT5=
EXTT6=
EXTT7=
EXTT8=
EXTT9=
PLAYORDER=
